<svg xmlns="http://www.w3.org/2000/svg" id="Layer_2" width="697.88" height="379.063" viewBox="0 0 697.88 379.063"><defs id="defs19"><linearGradient id="linear-gradient" x1="213.81" x2="579.33" y1="85.53" y2="85.53" gradientTransform="translate(-35.93 -29.08)" gradientUnits="userSpaceOnUse"><stop id="stop4" offset="0" stop-color="#fb9a0e"/><stop id="stop6" offset="1" stop-color="#578717"/></linearGradient><linearGradient id="linear-gradient1" x1="119.24" x2="423.18" y1="95.21" y2="95.21" gradientTransform="translate(-35.93 -29.08)" gradientUnits="userSpaceOnUse"><stop id="stop9" offset="0" stop-color="#64bef1"/><stop id="stop11" offset="1" stop-color="#004e9d"/></linearGradient><linearGradient id="linear-gradient2" x1="361.16" x2="531.18" y1="99.15" y2="99.15" gradientTransform="translate(-35.93 -29.08)" gradientUnits="userSpaceOnUse"><stop id="stop14" offset="0" stop-color="#8dcdad"/><stop id="stop16" offset="1" stop-color="#578717"/></linearGradient><style id="style2">.st3{fill:#578717}.st4{fill:#004e9d}.st5{fill:#2c3544}.st6{fill:#5d991b}.st7{fill:#005db5}</style></defs><g id="g304" transform="translate(40 21.727)"><path id="path21" d="M280.41 214.52a5.496 5.496 0 0 1-5.37 4.33c-.39 0-.78-.04-1.18-.12l-161.58-35.2s-.05-.01-.07-.02c-.56.09-1.13.13-1.72.13-5.58 0-10.1-3.92-10.1-8.75 0-2.12.87-4.06 2.31-5.57C-6.91 168.05.09 139.85.09 139.85h224.02s3.93 28.2-105.82 29.48c1.25 1.31 2.07 2.95 2.26 4.74l155.65 33.91c2.97.65 4.85 3.58 4.21 6.54" class="st5"/><path id="path23" d="M280.41 214.52a5.496 5.496 0 0 1-5.37 4.33c-.39 0-.78-.04-1.18-.12l-161.58-35.2s-.05-.01-.07-.02c-.56.09-1.13.13-1.72.13-5.58 0-10.1-3.92-10.1-8.75 0-2.12.87-4.06 2.31-5.57C-6.91 168.05.09 139.85.09 139.85h224.02s3.93 28.2-105.82 29.48c1.25 1.31 2.07 2.95 2.26 4.74l155.65 33.91c2.97.65 4.85 3.58 4.21 6.54" class="st5"/><path id="path25" d="M313.71 214.52a5.496 5.496 0 0 0 5.37 4.33c.39 0 .78-.04 1.18-.12l161.58-35.2s.05-.01.07-.02c.56.09 1.13.13 1.72.13 5.58 0 10.1-3.92 10.1-8.75 0-2.12-.87-4.06-2.31-5.57 109.61-1.27 102.61-29.47 102.61-29.47H370.01s-3.93 28.2 105.82 29.48c-1.25 1.31-2.07 2.95-2.26 4.74l-155.65 33.91a5.51 5.51 0 0 0-4.21 6.54" class="st5"/><circle id="circle27" cx="75.28" cy="107.4" r="15.48" class="st4"/><circle id="circle29" cx="33.99" cy="96.92" r="15.48" class="st4"/><path id="path31" d="M543.4 45.9c0 9.26-7.5 16.76-16.75 16.76s-16.76-7.5-16.76-16.76c0-1.81.29-3.55.82-5.19-9.93-5.44-31.39-16.86-62.68-24.7-40.76-10.23-83.28-10.67-126.37-1.33-13.33 2.89-26.65 7.71-39.91 14.42l-9.88-4.5c15.29-8.21 32.64-14.38 48.1-17.73 44.3-9.6 88.04-9.14 130.01 1.39 32.69 8.19 54.94 20.16 64.97 25.66 3.02-2.95 7.15-4.76 11.7-4.76 9.25 0 16.75 7.5 16.75 16.75zM202.49 80.91a16.85 16.85 0 0 0-7.69-1.85c-9.34 0-16.92 7.58-16.92 16.93s7.58 16.92 16.92 16.92 16.93-7.58 16.93-16.92c0-3.67-1.18-7.08-3.17-9.86 18.31-19.43 36.9-35.13 55.67-47.04L255 35.57c-17.74 11.88-35.27 27.01-52.51 45.35z" style="fill:url(#linear-gradient)"/><path id="path33" d="M83.31 34.07C104.85 23.6 140.86 6.14 190.56 9.91c28.46 2.16 54.12 9.03 76.55 18.06 3.16 1.27 6.25 2.59 9.28 3.94 22.82 10.16 41.95 22.36 56.86 33.54l-6.68 4.98c-15.39-11.37-35.16-23.66-58.78-33.56q-4.515-1.89-9.21-3.66c-20.39-7.66-43.37-13.4-68.62-15.32-45.9-3.49-79.91 12.11-100.93 22.3m284.74 55.72c-1.81 0-3.53.36-5.11 1.01-3.61-3.95-12.64-13.3-26.46-24.49l-7.12 4.52c14.2 11.3 23.54 20.9 27.4 25.07a13.47 13.47 0 0 0-2.19 7.37c0 7.45 6.03 13.48 13.48 13.48s13.48-6.03 13.48-13.48-6.04-13.48-13.48-13.48" style="fill:url(#linear-gradient1)"/><path id="path35" d="M495.25 76.28c0 8.39-6.8 15.19-15.19 15.19s-15.18-6.8-15.18-15.19c0-1.02.1-2.02.3-2.98-.25-.09-.5-.21-.75-.35-25.5-15.58-56.83-21.41-86.23-15.9-13.31 2.5-26.2 7.15-38.03 13.74-2.49 1.38-4.92 2.85-7.31 4.4-1.41.93-2.8 1.88-4.18 2.86-2.28 1.58-4.84-1.75-2.57-3.53.99-.75 2-1.48 3.02-2.19 2.3-1.64 4.65-3.19 7.06-4.65 23.32-14.25 51.19-20.93 78.46-18.54 18.91 1.71 37.36 7.44 53.86 16.93.07.04.14.08.2.14 2.77-3.14 6.83-5.12 11.35-5.12 8.39 0 15.19 6.8 15.19 15.19" style="fill:url(#linear-gradient2)"/><path id="path37" d="M296 90.32c-10.09 0-18.27 8.18-18.27 18.27 0 6.81 3.73 12.75 9.27 15.88v210.74h18V124.47c5.53-3.13 9.26-9.07 9.26-15.88 0-10.09-8.17-18.27-18.26-18.27m0 28.93c-5.89 0-10.67-4.77-10.67-10.66s4.78-10.67 10.67-10.67 10.67 4.78 10.67 10.67-4.78 10.66-10.67 10.66" class="st5"/><path id="path39" d="M103.99 104.615v24.925h61.75V85.61c-9.61 9.197-23.58 16.113-39.77 18.598-7.6 1.171-15.01 1.253-21.97.407z" class="st4" style="stroke-width:1"/><path id="path41" d="M150.21 70.73h-30.7c-8.57 0-15.52 6.95-15.52 15.52v18.81c6.96.83 14.37.75 21.97-.4 16.19-2.44 30.17-9.23 39.77-18.26v-.15c0-8.57-6.95-15.52-15.52-15.52" class="st7"/><path id="path43" d="M395.66 112.115v16.459c0 3.545 2.81 6.416 6.28 6.416h42.19c3.47 0 6.28-2.871 6.28-6.416v-30.65c-9.06 6.692-20.71 11.627-33.81 13.65-7.22 1.113-14.27 1.246-20.92.541z" class="st3" style="stroke-width:1"/><path id="path45" d="M444.12 85.65h-42.19c-3.47 0-6.28 2.81-6.28 6.28v20.68c6.65.7 13.71.56 20.92-.53 13.1-1.98 24.75-6.8 33.81-13.36v-6.8c0-3.47-2.81-6.28-6.28-6.28z" class="st6"/><path id="path47" d="M462.43 125.178v5.253c0 2.515 2 4.559 4.46 4.559h38.54c2.47 0 4.46-2.044 4.46-4.559v-19.633c-9.02 6.582-20.55 11.426-33.5 13.43a81.6 81.6 0 0 1-13.96.95" class="st3" style="stroke-width:1"/><path id="path49" d="M505.43 105.62h-38.54c-2.46 0-4.46 2-4.46 4.46v15.3c4.54.07 9.21-.22 13.96-.93 12.95-1.96 24.48-6.7 33.5-13.14v-1.23c0-2.46-2-4.46-4.46-4.46" class="st6"/><path id="path51" d="M522.88 104.979v24.192c0 3.216 2.55 5.819 5.7 5.819h41.62c3.15 0 5.7-2.603 5.7-5.819V86.952c-9.52 8.432-22.82 14.73-38.08 17.078a82 82 0 0 1-14.94.939z" class="st3" style="stroke-width:1"/><path id="path53" d="M570.2 76.28h-41.62c-3.15 0-5.7 2.55-5.7 5.7v23.61c4.84.14 9.85-.15 14.94-.92 15.26-2.3 28.56-8.47 38.08-16.73v-5.96c0-3.15-2.55-5.7-5.7-5.7" class="st6"/><circle id="circle55" cx="75.28" cy="47.3" r="15.48" class="st7"/><path id="path57" d="M68.89 276.46c0 5.92-1.67 10.9-5 14.94s-8.12 7.15-14.38 9.31l28.12 33.62H55.88l-24.12-30.38h-5.62v30.38H8.64v-83.25h24.88q7.755 0 14.25 1.56c4.33 1.04 8.06 2.62 11.19 4.75s5.56 4.77 7.31 7.94 2.62 6.88 2.62 11.12zm-17.5.38c0-4.25-1.67-7.33-5-9.25s-7.67-2.88-13-2.88h-7.25v26h5.25c6 0 10.83-1.17 14.5-3.5s5.5-5.79 5.5-10.38z" class="st5"/><path id="path59" d="M111.14 272.21c4 0 7.56.62 10.69 1.88s5.73 3.02 7.81 5.31 3.67 5.04 4.75 8.25 1.62 6.81 1.62 10.81c0 1.67-.11 3.36-.31 5.06-.21 1.71-.52 3.27-.94 4.69H98.64c.17 4.46 1.54 8.02 4.12 10.66s6.71 3.96 12.38 3.96c3.25 0 6.42-.3 9.5-.9s5.83-1.47 8.25-2.6l2.12 11.62c-3 1.5-6.42 2.65-10.25 3.44s-7.79 1.19-11.88 1.19q-7.62 0-13.5-2.25c-3.92-1.5-7.23-3.62-9.94-6.38-2.71-2.75-4.77-6.06-6.19-9.94s-2.12-8.14-2.12-12.81.69-9.1 2.06-13.06c1.38-3.96 3.35-7.33 5.94-10.12 2.58-2.79 5.73-4.96 9.44-6.5s7.89-2.31 12.56-2.31zm-1 11.5c-3.5 0-6.19 1.23-8.06 3.69-1.88 2.46-2.98 5.56-3.31 9.31h20.88c.42-3.92-.17-7.06-1.75-9.44s-4.17-3.56-7.75-3.56z" class="st5"/><path id="path61" d="M148.39 246.09h17.12v32.38c1.83-1.83 4.04-3.33 6.62-4.5s5.75-1.75 9.5-1.75c4 0 7.6.77 10.81 2.31s5.94 3.69 8.19 6.44 3.98 6.04 5.19 9.88c1.21 3.83 1.81 8 1.81 12.5s-.71 8.98-2.12 12.94c-1.42 3.96-3.54 7.38-6.38 10.25-2.83 2.88-6.4 5.11-10.69 6.69s-9.27 2.38-14.94 2.38c-4.67 0-9.12-.5-13.38-1.5s-8.17-2.33-11.75-4v-84zm28.5 39.37c-2.33 0-4.42.36-6.25 1.07s-3.54 1.74-5.12 3.07v31.73c1 .5 2.21.88 3.62 1.13 1.42.25 2.96.38 4.62.38 3 0 5.56-.48 7.69-1.44s3.85-2.3 5.19-4.01c1.33-1.71 2.31-3.74 2.94-6.08.62-2.34.94-4.89.94-7.65 0-5.35-1.11-9.72-3.31-13.11-2.21-3.39-5.65-5.08-10.31-5.08z" class="st5"/><path id="path63" d="M253.39 327.84c-2.25 2.17-4.96 4-8.12 5.5-3.17 1.5-6.83 2.25-11 2.25-2.67 0-5.08-.44-7.25-1.31-2.17-.88-4-2.08-5.5-3.62s-2.67-3.35-3.5-5.44c-.83-2.08-1.25-4.38-1.25-6.88 0-5.58 1.88-9.83 5.62-12.75 3.75-2.92 8.88-4.58 15.38-5 2.5-.17 5.08-.29 7.75-.38 2.67-.08 5.08-.17 7.25-.25v-2.12c0-3.92-.96-6.89-2.88-8.94q-2.88-3.06-9-3.06c-3.17 0-6.17.38-9 1.12q-4.245 1.125-7.5 2.88l-3.38-12c3.17-1.83 6.67-3.23 10.5-4.19s7.96-1.44 12.38-1.44c8.08 0 14.44 2.21 19.06 6.62 4.62 4.42 6.94 10.96 6.94 19.62v35.88h-16.5v-6.5zm-12.88-3.88c2.42 0 4.67-.42 6.75-1.25s3.92-1.88 5.5-3.12v-9.62c-1.75.17-3.62.33-5.62.5s-3.83.38-5.5.62c-2.5.42-4.5 1.11-6 2.06-1.5.96-2.25 2.56-2.25 4.81 0 2 .64 3.5 1.94 4.5q1.935 1.5 5.19 1.5z" class="st5"/><path id="path65" d="M356.14 327.84c-2.25 2.17-4.96 4-8.12 5.5-3.17 1.5-6.83 2.25-11 2.25-2.67 0-5.08-.44-7.25-1.31-2.17-.88-4-2.08-5.5-3.62s-2.67-3.35-3.5-5.44c-.83-2.08-1.25-4.38-1.25-6.88 0-5.58 1.88-9.83 5.62-12.75 3.75-2.92 8.88-4.58 15.38-5 2.5-.17 5.08-.29 7.75-.38 2.67-.08 5.08-.17 7.25-.25v-2.12c0-3.92-.96-6.89-2.88-8.94q-2.88-3.06-9-3.06c-3.17 0-6.17.38-9 1.12q-4.245 1.125-7.5 2.88l-3.38-12c3.17-1.83 6.67-3.23 10.5-4.19s7.96-1.44 12.38-1.44c8.08 0 14.44 2.21 19.06 6.62 4.62 4.42 6.94 10.96 6.94 19.62v35.88h-16.5v-6.5zm-12.88-3.88c2.42 0 4.67-.42 6.75-1.25s3.92-1.88 5.5-3.12v-9.62c-1.75.17-3.62.33-5.62.5s-3.83.38-5.5.62c-2.5.42-4.5 1.11-6 2.06-1.5.96-2.25 2.56-2.25 4.81 0 2 .64 3.5 1.94 4.5q1.935 1.5 5.19 1.5z" class="st5"/><path id="path67" d="M388.26 334.34v-60.88h16.5v8.25c2-3.25 4.54-5.64 7.62-7.19 3.08-1.54 6.46-2.31 10.12-2.31 3.92 0 7.27.83 10.06 2.5q4.185 2.505 6.81 6.69c1.75 2.79 3.04 6.04 3.88 9.75.83 3.71 1.25 7.56 1.25 11.56v31.62h-17.12v-31.75c0-5.5-.86-9.67-2.56-12.5-1.71-2.83-4.52-4.25-8.44-4.25-2.5 0-4.67.58-6.5 1.75s-3.33 2.54-4.5 4.12v42.62h-17.12z" class="st5"/><path id="path69" d="M488.01 272.21c3 0 6.1.31 9.31.94 3.21.62 5.89 1.52 8.06 2.69l-1.88 12.25c-3.92-1.75-8.25-2.62-13-2.62-6 0-10.42 1.65-13.25 4.94s-4.25 7.77-4.25 13.44 1.42 10.17 4.25 13.5 7.25 5 13.25 5c4.75 0 9.08-.88 13-2.62l1.88 12.25c-2.17 1.17-4.86 2.06-8.06 2.69-3.21.62-6.31.94-9.31.94-5.25 0-9.88-.81-13.88-2.44s-7.36-3.85-10.06-6.69c-2.71-2.83-4.75-6.19-6.12-10.06s-2.06-8.06-2.06-12.56.69-8.69 2.06-12.56 3.42-7.21 6.12-10c2.71-2.79 6.06-5 10.06-6.62s8.62-2.44 13.88-2.44z" class="st5"/><path id="path71" d="M543.14 272.21c4 0 7.56.62 10.69 1.88s5.73 3.02 7.81 5.31 3.67 5.04 4.75 8.25 1.62 6.81 1.62 10.81c0 1.67-.11 3.36-.31 5.06-.21 1.71-.52 3.27-.94 4.69h-36.12c.17 4.46 1.54 8.02 4.12 10.66s6.71 3.96 12.38 3.96c3.25 0 6.42-.3 9.5-.9s5.83-1.47 8.25-2.6l2.12 11.62c-3 1.5-6.42 2.65-10.25 3.44s-7.79 1.19-11.88 1.19q-7.62 0-13.5-2.25c-3.92-1.5-7.23-3.62-9.94-6.38-2.71-2.75-4.77-6.06-6.19-9.94s-2.12-8.14-2.12-12.81.69-9.1 2.06-13.06c1.38-3.96 3.35-7.33 5.94-10.12 2.58-2.79 5.73-4.96 9.44-6.5s7.89-2.31 12.56-2.31zm-1 11.5c-3.5 0-6.19 1.23-8.06 3.69-1.88 2.46-2.98 5.56-3.31 9.31h20.88c.42-3.92-.17-7.06-1.75-9.44s-4.17-3.56-7.75-3.56z" class="st5"/><path id="path73" d="M617.88 288.09H615c-4.25 0-7.79.67-10.62 2s-5.08 3.25-6.75 5.75v38.5h-17.12v-60.88h16.5v10.75c1.17-3.58 3.02-6.38 5.56-8.38s5.94-3 10.19-3c1.92 0 3.62.21 5.12.62v14.62z" class="st5"/></g></svg>